<?xml version="1.0" encoding="UTF-8"?><svg id="uuid-6c2a08ec-f05f-4aa9-9702-4d89cffabe2f" xmlns="http://www.w3.org/2000/svg" viewBox="0 0 70 51.29"><defs><style>.uuid-e51ad891-f4cc-4539-b629-3edf02fdbf82{fill:#fff;}</style></defs><g id="uuid-0bbf5e1a-30fc-4e91-9ab6-6cabcec9fe13"><g id="uuid-e3637e25-50f1-4005-a0e2-15bf4420036b"><path class="uuid-e51ad891-f4cc-4539-b629-3edf02fdbf82" d="M69.75,19.05c.94-9.9-1.09-17.13-1.18-17.44l-.47-1.62-1.52,.71c-9.62,4.45-16.43,14.44-19.72,28.88-1.6,7.04-2.01,13.46-2.09,17.17-.54,0-1.07,0-1.62,0-.81,0-1.6,0-2.38,.01-.88-5.51-3.3-17.34-8.88-26.83-3.05-5.19-7.32-7.8-12.02-7.34-7.46,.73-14.67,9.05-19.26,22.26l-.61,1.76,1.86,.15c.46,.03,9.14,.64,18.08-4.72,1.61,1.82,5.54,6.61,10.31,14.81,.06,.1,.12,.21,.18,.32-5.67,.41-9.39,1.09-9.39,1.86,0,1.25,9.9,2.27,22.11,2.27s22.11-1.02,22.11-2.27c0-.68-2.97-1.3-7.65-1.72,.14-.15,.28-.3,.41-.46,8.29-9.65,11-20.14,11.72-27.79h0Zm-36.12,27.92s-.05-.09-.07-.13c-5.02-8.9-9.25-14.17-11.2-16.41,1.22-.89,5.88-4.62,8.31-6.75,4.28,8.34,6.34,18.13,7.18,23.14-1.47,.04-2.88,.09-4.22,.16Zm20.51-.13c-.06,.07-.13,.13-.19,.2-1.94-.11-4.05-.2-6.29-.24,.24-8.81-.05-26.84,16.11-35.8,1.17,5.96,6.08,19.38-9.63,35.85h0Z"/></g></g></svg>